<mxfile host="app.diagrams.net" modified="2024-04-24T13:16:43.420Z" agent="Mozilla/5.0 (Windows NT 10.0; Win64; x64) AppleWebKit/537.36 (KHTML, like Gecko) Chrome/124.0.0.0 Safari/537.36 Edg/124.0.0.0" etag="hOxb1KqP4a5HXzMy-3aH" version="24.2.5" type="github">
  <diagram name="第 1 页" id="SnEiPAsqYIaOKTm-W5p2">
    <mxGraphModel dx="915" dy="575" grid="1" gridSize="10" guides="1" tooltips="1" connect="1" arrows="1" fold="1" page="1" pageScale="1" pageWidth="827" pageHeight="1169" math="0" shadow="0">
      <root>
        <mxCell id="0" />
        <mxCell id="1" parent="0" />
        <mxCell id="nd6yBEO4HvQz4fjfClLw-33" style="edgeStyle=orthogonalEdgeStyle;rounded=0;orthogonalLoop=1;jettySize=auto;html=1;exitX=0.5;exitY=1;exitDx=0;exitDy=0;exitPerimeter=0;entryX=0.5;entryY=0;entryDx=0;entryDy=0;fontSize=14;strokeWidth=2;" parent="1" source="nd6yBEO4HvQz4fjfClLw-1" edge="1">
          <mxGeometry relative="1" as="geometry">
            <mxPoint x="321" y="133" as="targetPoint" />
          </mxGeometry>
        </mxCell>
        <mxCell id="nd6yBEO4HvQz4fjfClLw-1" value="Start" style="strokeWidth=2;html=1;shape=mxgraph.flowchart.start_1;whiteSpace=wrap;fontSize=14;" parent="1" vertex="1">
          <mxGeometry x="270" y="40" width="100" height="60" as="geometry" />
        </mxCell>
        <mxCell id="nd6yBEO4HvQz4fjfClLw-9" value="使用云侧新接口获取云升级检测结果" style="rounded=1;whiteSpace=wrap;html=1;absoluteArcSize=1;arcSize=14;strokeWidth=2;fontSize=14;" parent="1" vertex="1">
          <mxGeometry x="260" y="200" width="120" height="70" as="geometry" />
        </mxCell>
        <mxCell id="nd6yBEO4HvQz4fjfClLw-24" value="根据云升级检测结果中相应的强提醒设置以及App是否是重启或切换云账号，进行相应强提醒" style="rounded=1;whiteSpace=wrap;html=1;absoluteArcSize=1;arcSize=14;strokeWidth=2;fontSize=14;" parent="1" vertex="1">
          <mxGeometry x="231" y="319" width="180" height="70" as="geometry" />
        </mxCell>
        <mxCell id="L9t5HsTD7uQbFF0ELLba-4" style="edgeStyle=orthogonalEdgeStyle;rounded=0;orthogonalLoop=1;jettySize=auto;html=1;exitX=0.5;exitY=1;exitDx=0;exitDy=0;exitPerimeter=0;entryX=0.5;entryY=0;entryDx=0;entryDy=0;fontSize=14;strokeWidth=2;" parent="1" source="nd6yBEO4HvQz4fjfClLw-44" target="nd6yBEO4HvQz4fjfClLw-46" edge="1">
          <mxGeometry relative="1" as="geometry" />
        </mxCell>
        <mxCell id="nd6yBEO4HvQz4fjfClLw-44" value="用户&lt;div style=&quot;font-size: 14px;&quot;&gt;确认升级&lt;/div&gt;" style="strokeWidth=2;html=1;shape=mxgraph.flowchart.decision;whiteSpace=wrap;fontSize=14;" parent="1" vertex="1">
          <mxGeometry x="249" y="425" width="144" height="72" as="geometry" />
        </mxCell>
        <mxCell id="nd6yBEO4HvQz4fjfClLw-45" value="End" style="strokeWidth=2;html=1;shape=mxgraph.flowchart.terminator;whiteSpace=wrap;fontSize=14;" parent="1" vertex="1">
          <mxGeometry x="272" y="637" width="100" height="40" as="geometry" />
        </mxCell>
        <mxCell id="nd6yBEO4HvQz4fjfClLw-46" value="后台静默升级" style="rounded=1;whiteSpace=wrap;html=1;absoluteArcSize=1;arcSize=14;strokeWidth=2;fontSize=14;" parent="1" vertex="1">
          <mxGeometry x="269" y="539" width="105" height="58" as="geometry" />
        </mxCell>
        <mxCell id="nd6yBEO4HvQz4fjfClLw-47" style="edgeStyle=orthogonalEdgeStyle;rounded=0;orthogonalLoop=1;jettySize=auto;html=1;exitX=0.5;exitY=1;exitDx=0;exitDy=0;entryX=0.5;entryY=0;entryDx=0;entryDy=0;entryPerimeter=0;fontSize=14;strokeWidth=2;" parent="1" source="nd6yBEO4HvQz4fjfClLw-46" target="nd6yBEO4HvQz4fjfClLw-45" edge="1">
          <mxGeometry relative="1" as="geometry" />
        </mxCell>
        <mxCell id="nd6yBEO4HvQz4fjfClLw-50" style="edgeStyle=orthogonalEdgeStyle;rounded=0;orthogonalLoop=1;jettySize=auto;html=1;exitX=0.5;exitY=1;exitDx=0;exitDy=0;entryX=0.5;entryY=0;entryDx=0;entryDy=0;entryPerimeter=0;fontSize=14;strokeWidth=2;" parent="1" source="nd6yBEO4HvQz4fjfClLw-24" target="nd6yBEO4HvQz4fjfClLw-44" edge="1">
          <mxGeometry relative="1" as="geometry" />
        </mxCell>
        <mxCell id="nd6yBEO4HvQz4fjfClLw-51" value="是" style="text;html=1;align=center;verticalAlign=middle;whiteSpace=wrap;rounded=0;fontSize=14;strokeWidth=2;" parent="1" vertex="1">
          <mxGeometry x="320" y="497" width="30" height="30" as="geometry" />
        </mxCell>
        <mxCell id="nd6yBEO4HvQz4fjfClLw-52" value="否" style="text;html=1;align=center;verticalAlign=middle;whiteSpace=wrap;rounded=0;fontSize=14;strokeWidth=2;" parent="1" vertex="1">
          <mxGeometry x="180" y="479" width="30" height="30" as="geometry" />
        </mxCell>
        <mxCell id="L9t5HsTD7uQbFF0ELLba-5" style="edgeStyle=orthogonalEdgeStyle;rounded=0;orthogonalLoop=1;jettySize=auto;html=1;exitX=0;exitY=0.5;exitDx=0;exitDy=0;exitPerimeter=0;entryX=0;entryY=0.5;entryDx=0;entryDy=0;entryPerimeter=0;fontSize=14;strokeWidth=2;" parent="1" source="nd6yBEO4HvQz4fjfClLw-44" target="nd6yBEO4HvQz4fjfClLw-45" edge="1">
          <mxGeometry relative="1" as="geometry">
            <Array as="points">
              <mxPoint x="210" y="461" />
              <mxPoint x="210" y="657" />
            </Array>
          </mxGeometry>
        </mxCell>
        <mxCell id="6PjM95sy_souuHXPras5-1" value="启动App" style="rounded=1;whiteSpace=wrap;html=1;absoluteArcSize=1;arcSize=14;strokeWidth=2;fontSize=14;" vertex="1" parent="1">
          <mxGeometry x="280" y="133" width="80" height="27" as="geometry" />
        </mxCell>
        <mxCell id="6PjM95sy_souuHXPras5-2" style="edgeStyle=orthogonalEdgeStyle;rounded=0;orthogonalLoop=1;jettySize=auto;html=1;exitX=0.5;exitY=1;exitDx=0;exitDy=0;exitPerimeter=0;entryX=0.5;entryY=0;entryDx=0;entryDy=0;fontSize=14;strokeWidth=2;" edge="1" parent="1">
          <mxGeometry relative="1" as="geometry">
            <mxPoint x="322" y="196" as="targetPoint" />
            <mxPoint x="321" y="163" as="sourcePoint" />
          </mxGeometry>
        </mxCell>
        <mxCell id="6PjM95sy_souuHXPras5-3" style="edgeStyle=orthogonalEdgeStyle;rounded=0;orthogonalLoop=1;jettySize=auto;html=1;exitX=0.5;exitY=1;exitDx=0;exitDy=0;exitPerimeter=0;entryX=0.5;entryY=0;entryDx=0;entryDy=0;fontSize=14;strokeWidth=2;" edge="1" parent="1">
          <mxGeometry relative="1" as="geometry">
            <mxPoint x="323" y="316" as="targetPoint" />
            <mxPoint x="322" y="283" as="sourcePoint" />
            <Array as="points">
              <mxPoint x="322" y="270" />
              <mxPoint x="323" y="270" />
            </Array>
          </mxGeometry>
        </mxCell>
      </root>
    </mxGraphModel>
  </diagram>
</mxfile>
